<svg id="elements" xmlns="http://www.w3.org/2000/svg" xmlns:xlink="http://www.w3.org/1999/xlink" viewBox="0 0 781.68 779.99"><defs><style>.cls-1{fill:#414042;}.cls-2{fill:#06c;}.cls-3{fill:#00aeef;}.cls-4{clip-path:url(#clip-path);}.cls-5{opacity:0.5;}.cls-6{fill:url(#linear-gradient);}.cls-7{fill:none;stroke:#414042;stroke-miterlimit:10;stroke-width:10px;}.cls-8{fill:#231f20;}</style><clipPath id="clip-path" transform="translate(-196.72 -144.39)"><path class="cls-1" d="M712.94,400.06c0,12.16-13.75,23.21-15.42,34.91-1.71,12,8.36,26.44,5,37.83-3.4,11.58-19.7,18.3-24.65,29.12s.55,27.67-5.91,37.7-24,12-31.87,21-7.21,26.67-16.26,34.52-26.38,4.71-36.47,11.21S573,629.89,562.07,634.9s-26.57-2.94-38.15.45c-11.39,3.34-20.37,18.51-32.36,20.22-11.7,1.67-24.57-10.35-36.74-10.35s-25,12-36.72,10.35c-12-1.71-21-16.88-32.37-20.22-11.58-3.39-27.33,4.5-38.16-.45s-15.27-22.1-25.3-28.57-27.44-3.37-36.48-11.2-8.4-25.47-16.26-34.53-25.37-10.89-31.87-21-.89-26.75-5.9-37.7-21.25-17.54-24.65-29.13c-3.34-11.38,6.73-25.83,5-37.82-1.67-11.7-15.41-22.75-15.41-34.91s13.74-23.21,15.41-34.9c1.71-12-8.35-26.45-5-37.83,3.4-11.59,19.7-18.31,24.65-29.13s-.55-27.66,5.91-37.7,24-11.95,31.87-21,7.21-26.67,16.26-34.51,26.38-4.71,36.48-11.21,14.36-23.56,25.3-28.57,26.57,2.94,38.15-.45c11.39-3.34,20.37-18.51,32.37-20.22,11.69-1.67,24.56,10.35,36.72,10.35s25-12,36.74-10.35c12,1.71,21,16.88,32.36,20.22,11.58,3.39,27.33-4.5,38.16.46s15.27,22.1,25.3,28.56,27.44,3.37,36.48,11.21,8.41,25.46,16.25,34.52,25.37,10.89,31.87,21,.9,26.76,5.91,37.7,21.25,17.54,24.65,29.13c3.34,11.38-6.73,25.83-5,37.83C699.19,376.85,712.94,387.9,712.94,400.06Z"/></clipPath><linearGradient id="linear-gradient" x1="347.4" y1="214" x2="562.25" y2="586.12" gradientTransform="translate(416.1 -204.43) rotate(45)" gradientUnits="userSpaceOnUse"><stop offset="0.01" stop-color="#fccb00"/><stop offset="0.15" stop-color="#f6c503"/><stop offset="0.36" stop-color="#e5b30c"/><stop offset="0.6" stop-color="#c9961a"/></linearGradient></defs><title>1st</title><polygon class="cls-2" points="169.99 707.75 141.53 625.53 58.46 650.79 164.63 441.82 276.16 498.78 169.99 707.75"/><polygon class="cls-2" points="337.77 707.75 366.24 625.53 449.31 650.79 343.14 441.82 231.61 498.78 337.77 707.75"/><path class="cls-3" d="M712.94,400.06c0,12.16-13.75,23.21-15.42,34.91-1.71,12,8.36,26.44,5,37.83-3.4,11.58-19.7,18.3-24.65,29.12s.55,27.67-5.91,37.7-24,12-31.87,21-7.21,26.67-16.26,34.52-26.38,4.71-36.47,11.21S573,629.89,562.07,634.9s-26.57-2.94-38.15.45c-11.39,3.34-20.37,18.51-32.36,20.22-11.7,1.67-24.57-10.35-36.74-10.35s-25,12-36.72,10.35c-12-1.71-21-16.88-32.37-20.22-11.58-3.39-27.33,4.5-38.16-.45s-15.27-22.1-25.3-28.57-27.44-3.37-36.48-11.2-8.4-25.47-16.26-34.53-25.37-10.89-31.87-21-.89-26.75-5.9-37.7-21.25-17.54-24.65-29.13c-3.34-11.38,6.73-25.83,5-37.82-1.67-11.7-15.41-22.75-15.41-34.91s13.74-23.21,15.41-34.9c1.71-12-8.35-26.45-5-37.83,3.4-11.59,19.7-18.31,24.65-29.13s-.55-27.66,5.91-37.7,24-11.95,31.87-21,7.21-26.67,16.26-34.51,26.38-4.71,36.48-11.21,14.36-23.56,25.3-28.57,26.57,2.94,38.15-.45c11.39-3.34,20.37-18.51,32.37-20.22,11.69-1.67,24.56,10.35,36.72,10.35s25-12,36.74-10.35c12,1.71,21,16.88,32.36,20.22,11.58,3.39,27.33-4.5,38.16.46s15.27,22.1,25.3,28.56,27.44,3.37,36.48,11.21,8.41,25.46,16.25,34.52,25.37,10.89,31.87,21,.9,26.76,5.91,37.7,21.25,17.54,24.65,29.13c3.34,11.38-6.73,25.83-5,37.83C699.19,376.85,712.94,387.9,712.94,400.06Z" transform="translate(-196.72 -144.39)"/><path class="cls-1" d="M712.94,400.06c0,12.16-13.75,23.21-15.42,34.91-1.71,12,8.36,26.44,5,37.83-3.4,11.58-19.7,18.3-24.65,29.12s.55,27.67-5.91,37.7-24,12-31.87,21-7.21,26.67-16.26,34.52-26.38,4.71-36.47,11.21S573,629.89,562.07,634.9s-26.57-2.94-38.15.45c-11.39,3.34-20.37,18.51-32.36,20.22-11.7,1.67-24.57-10.35-36.74-10.35s-25,12-36.72,10.35c-12-1.71-21-16.88-32.37-20.22-11.58-3.39-27.33,4.5-38.16-.45s-15.27-22.1-25.3-28.57-27.44-3.37-36.48-11.2-8.4-25.47-16.26-34.53-25.37-10.89-31.87-21-.89-26.75-5.9-37.7-21.25-17.54-24.65-29.13c-3.34-11.38,6.73-25.83,5-37.82-1.67-11.7-15.41-22.75-15.41-34.91s13.74-23.21,15.41-34.9c1.71-12-8.35-26.45-5-37.83,3.4-11.59,19.7-18.31,24.65-29.13s-.55-27.66,5.91-37.7,24-11.95,31.87-21,7.21-26.67,16.26-34.51,26.38-4.71,36.48-11.21,14.36-23.56,25.3-28.57,26.57,2.94,38.15-.45c11.39-3.34,20.37-18.51,32.37-20.22,11.69-1.67,24.56,10.35,36.72,10.35s25-12,36.74-10.35c12,1.71,21,16.88,32.36,20.22,11.58,3.39,27.33-4.5,38.16.46s15.27,22.1,25.3,28.56,27.44,3.37,36.48,11.21,8.41,25.46,16.25,34.52,25.37,10.89,31.87,21,.9,26.76,5.91,37.7,21.25,17.54,24.65,29.13c3.34,11.38-6.73,25.83-5,37.83C699.19,376.85,712.94,387.9,712.94,400.06Z" transform="translate(-196.72 -144.39)"/><g class="cls-4"><rect class="cls-5" x="430.32" y="333.59" width="429.03" height="514.44" transform="translate(-425.62 484.62) rotate(-45)"/></g><circle class="cls-6" cx="454.82" cy="400.06" r="214.81" transform="translate(-346.39 294.39) rotate(-45)"/><path class="cls-7" d="M650.22,400.06c0,107.92-87.48,195.4-195.4,195.4S259.43,508,259.43,400.06s87.48-195.39,195.39-195.39S650.22,292.15,650.22,400.06Z" transform="translate(-196.72 -144.39)"/><path class="cls-8" d="M398.19,358.66l-14.72-35.52c.85-.43,3-1.49,6.56-3.2l6.88-3.36q1.59-.79,6.08-3.2a49.45,49.45,0,0,0,6.72-4.16q2.24-1.75,6.4-4.8a64.19,64.19,0,0,0,7.36-6.24l7.52-7.52a125.27,125.27,0,0,0,8.48-9.44h57V462.34h29.76V504.9h-128V462.34h32V343.62Z" transform="translate(-196.72 -144.39)"/></svg>