<svg id="elements" xmlns="http://www.w3.org/2000/svg" xmlns:xlink="http://www.w3.org/1999/xlink" viewBox="0 0 431.29 430.36"><defs><style>.cls-1{fill:#414042;}.cls-2{fill:#ed1c24;}.cls-3{fill:#d81322;}.cls-4{fill:#00aeef;}.cls-5{clip-path:url(#clip-path);}.cls-6{opacity:0.5;}.cls-7{fill:url(#linear-gradient);}.cls-8{fill:none;stroke:#414042;stroke-miterlimit:10;stroke-width:10px;}.cls-9{fill:#231f20;}</style><clipPath id="clip-path" transform="translate(-898.06 -101.32)"><path class="cls-1" d="M1182.88,242.39c0,6.71-7.59,12.8-8.51,19.26-.94,6.62,4.61,14.59,2.77,20.87s-10.87,10.1-13.6,16.07.31,15.27-3.26,20.8S1147,326,1142.69,331s-4,14.72-9,19-14.55,2.6-20.12,6.18-7.92,13-14,15.76-14.66-1.62-21.05.25-11.24,10.22-17.86,11.16c-6.45.92-13.55-5.71-20.27-5.71s-13.81,6.63-20.26,5.71c-6.62-.94-11.58-9.32-17.86-11.16s-15.08,2.48-21.05-.25-8.43-12.19-14-15.76-15.14-1.86-20.13-6.18-4.64-14.06-9-19-14-6-17.58-11.58-.5-14.76-3.26-20.8-11.73-9.68-13.6-16.07,3.71-14.26,2.77-20.87c-.92-6.46-8.5-12.55-8.5-19.26s7.58-12.8,8.5-19.26c.94-6.62-4.61-14.59-2.77-20.87s10.87-10.1,13.6-16.07-.31-15.27,3.26-20.8,13.26-6.6,17.58-11.58,4-14.72,9-19.05,14.56-2.6,20.13-6.18,7.92-13,14-15.76,14.66,1.62,21.05-.25,11.24-10.22,17.86-11.16c6.45-.92,13.55,5.71,20.26,5.71s13.82-6.63,20.27-5.71c6.62.94,11.58,9.32,17.86,11.16s15.08-2.48,21.05.25,8.43,12.19,14,15.76,15.14,1.86,20.13,6.18,4.64,14.05,9,19.05,14,6,17.58,11.58.5,14.76,3.26,20.8,11.73,9.68,13.6,16.07-3.71,14.25-2.77,20.87C1175.29,229.59,1182.88,235.68,1182.88,242.39Z"/></clipPath><linearGradient id="linear-gradient" x1="981.19" y1="139.73" x2="1099.74" y2="345.05" gradientTransform="translate(476.14 -664.72) rotate(45)" gradientUnits="userSpaceOnUse"><stop offset="0.01" stop-color="#e6e7e8"/><stop offset="0.12" stop-color="#e0e1e2"/><stop offset="0.27" stop-color="#cecfd1"/><stop offset="0.45" stop-color="#b0b2b4"/><stop offset="0.6" stop-color="#939598"/></linearGradient></defs><title>2nd</title><polygon class="cls-2" points="93.79 390.5 78.09 345.14 32.25 359.07 90.83 243.77 152.37 275.2 93.79 390.5"/><polygon class="cls-3" points="186.37 390.5 202.07 345.14 247.91 359.07 189.33 243.77 127.79 275.2 186.37 390.5"/><path class="cls-4" d="M1182.88,242.39c0,6.71-7.59,12.8-8.51,19.26-.94,6.62,4.61,14.59,2.77,20.87s-10.87,10.1-13.6,16.07.31,15.27-3.26,20.8S1147,326,1142.69,331s-4,14.72-9,19-14.55,2.6-20.12,6.18-7.92,13-14,15.76-14.66-1.62-21.05.25-11.24,10.22-17.86,11.16c-6.45.92-13.55-5.71-20.27-5.71s-13.81,6.63-20.26,5.71c-6.62-.94-11.58-9.32-17.86-11.16s-15.08,2.48-21.05-.25-8.43-12.19-14-15.76-15.14-1.86-20.13-6.18-4.64-14.06-9-19-14-6-17.58-11.58-.5-14.76-3.26-20.8-11.73-9.68-13.6-16.07,3.71-14.26,2.77-20.87c-.92-6.46-8.5-12.55-8.5-19.26s7.58-12.8,8.5-19.26c.94-6.62-4.61-14.59-2.77-20.87s10.87-10.1,13.6-16.07-.31-15.27,3.26-20.8,13.26-6.6,17.58-11.58,4-14.72,9-19.05,14.56-2.6,20.13-6.18,7.92-13,14-15.76,14.66,1.62,21.05-.25,11.24-10.22,17.86-11.16c6.45-.92,13.55,5.71,20.26,5.71s13.82-6.63,20.27-5.71c6.62.94,11.58,9.32,17.86,11.16s15.08-2.48,21.05.25,8.43,12.19,14,15.76,15.14,1.86,20.13,6.18,4.64,14.05,9,19.05,14,6,17.58,11.58.5,14.76,3.26,20.8,11.73,9.68,13.6,16.07-3.71,14.25-2.77,20.87C1175.29,229.59,1182.88,235.68,1182.88,242.39Z" transform="translate(-898.06 -101.32)"/><path class="cls-1" d="M1182.88,242.39c0,6.71-7.59,12.8-8.51,19.26-.94,6.62,4.61,14.59,2.77,20.87s-10.87,10.1-13.6,16.07.31,15.27-3.26,20.8S1147,326,1142.69,331s-4,14.72-9,19-14.55,2.6-20.12,6.18-7.92,13-14,15.76-14.66-1.62-21.05.25-11.24,10.22-17.86,11.16c-6.45.92-13.55-5.71-20.27-5.71s-13.81,6.63-20.26,5.71c-6.62-.94-11.58-9.32-17.86-11.16s-15.08,2.48-21.05-.25-8.43-12.19-14-15.76-15.14-1.86-20.13-6.18-4.64-14.06-9-19-14-6-17.58-11.58-.5-14.76-3.26-20.8-11.73-9.68-13.6-16.07,3.71-14.26,2.77-20.87c-.92-6.46-8.5-12.55-8.5-19.26s7.58-12.8,8.5-19.26c.94-6.62-4.61-14.59-2.77-20.87s10.87-10.1,13.6-16.07-.31-15.27,3.26-20.8,13.26-6.6,17.58-11.58,4-14.72,9-19.05,14.56-2.6,20.13-6.18,7.92-13,14-15.76,14.66,1.62,21.05-.25,11.24-10.22,17.86-11.16c6.45-.92,13.55,5.71,20.26,5.71s13.82-6.63,20.27-5.71c6.62.94,11.58,9.32,17.86,11.16s15.08-2.48,21.05.25,8.43,12.19,14,15.76,15.14,1.86,20.13,6.18,4.64,14.05,9,19.05,14,6,17.58,11.58.5,14.76,3.26,20.8,11.73,9.68,13.6,16.07-3.71,14.25-2.77,20.87C1175.29,229.59,1182.88,235.68,1182.88,242.39Z" transform="translate(-898.06 -101.32)"/><g class="cls-5"><rect class="cls-6" x="1026.94" y="205.71" width="236.72" height="283.85" transform="translate(-808.42 810.35) rotate(-45)"/></g><circle class="cls-7" cx="1040.46" cy="242.39" r="118.52" transform="translate(-764.71 705.39) rotate(-45)"/><path class="cls-8" d="M1148.28,242.39a107.81,107.81,0,1,1-107.82-107.81A107.81,107.81,0,0,1,1148.28,242.39Z" transform="translate(-898.06 -101.32)"/><path class="cls-9" d="M1013.27,211.93,994.21,191.8q18.88-21.88,45.9-21.89,18,0,30,10.59t12,28.08q0,14.13-6.09,21.63t-22.16,17.92a140.65,140.65,0,0,0-15.53,11.74q-8.13,7-10.95,11.92h31.07V257.66h29.67v37.61H992.79v-25.6q7.07-11.66,12.1-17.39a106,106,0,0,1,13.68-12.63,113.41,113.41,0,0,1,13-9.62,99.45,99.45,0,0,0,13.59-10.42q4.68-4.5,4.68-9.44,0-11.65-14.83-11.66a18,18,0,0,0-8.92,2.56,35.2,35.2,0,0,0-6.62,4.59Q1017.33,207.7,1013.27,211.93Z" transform="translate(-898.06 -101.32)"/></svg>