<svg id="elements" xmlns="http://www.w3.org/2000/svg" xmlns:xlink="http://www.w3.org/1999/xlink" viewBox="0 0 431.29 430.36"><defs><style>.cls-1{fill:#414042;}.cls-2{fill:#109b37;}.cls-3{fill:#00aeef;}.cls-4{clip-path:url(#clip-path);}.cls-5{opacity:0.5;}.cls-6{fill:url(#linear-gradient);}.cls-7{fill:none;stroke:#414042;stroke-miterlimit:10;stroke-width:10px;}.cls-8{fill:#231f20;}</style><clipPath id="clip-path" transform="translate(-898.06 -510.82)"><path class="cls-1" d="M1182.88,651.89c0,6.71-7.59,12.8-8.51,19.25-.94,6.62,4.61,14.6,2.77,20.88s-10.87,10.1-13.6,16.07.31,15.26-3.26,20.8-13.26,6.59-17.59,11.58-4,14.71-9,19-14.55,2.59-20.12,6.18-7.92,13-14,15.76-14.66-1.63-21.05.25-11.24,10.21-17.86,11.15c-6.45.93-13.55-5.7-20.27-5.7s-13.81,6.63-20.26,5.7c-6.62-.94-11.58-9.31-17.86-11.15s-15.08,2.48-21.05-.25-8.43-12.2-14-15.76-15.14-1.87-20.13-6.19-4.64-14-9-19-14-6-17.58-11.58-.5-14.76-3.26-20.8-11.73-9.68-13.6-16.07,3.71-14.26,2.77-20.88c-.92-6.45-8.5-12.54-8.5-19.25s7.58-12.81,8.5-19.26c.94-6.62-4.61-14.59-2.77-20.88s10.87-10.09,13.6-16.07-.31-15.26,3.26-20.8,13.26-6.59,17.58-11.58,4-14.71,9-19,14.56-2.6,20.13-6.19,7.92-13,14-15.76,14.66,1.63,21.05-.25,11.24-10.21,17.86-11.15c6.45-.92,13.55,5.71,20.26,5.71s13.82-6.63,20.27-5.71c6.62.94,11.58,9.31,17.86,11.15s15.08-2.48,21.05.26,8.43,12.19,14,15.76,15.14,1.86,20.13,6.18,4.64,14,9,19,14,6,17.58,11.57.5,14.77,3.26,20.8,11.73,9.68,13.6,16.07-3.71,14.26-2.77,20.88C1175.29,639.08,1182.88,645.18,1182.88,651.89Z"/></clipPath><linearGradient id="linear-gradient" x1="981.19" y1="549.23" x2="1099.74" y2="754.55" gradientTransform="translate(765.7 -544.79) rotate(45)" gradientUnits="userSpaceOnUse"><stop offset="0.4" stop-color="#a18132"/><stop offset="0.84" stop-color="#6f4a27"/></linearGradient></defs><title>3rd</title><polygon class="cls-2" points="93.79 390.5 78.09 345.14 32.25 359.07 90.83 243.77 152.37 275.2 93.79 390.5"/><polygon class="cls-2" points="186.37 390.5 202.07 345.14 247.91 359.07 189.33 243.77 127.79 275.2 186.37 390.5"/><path class="cls-3" d="M1182.88,651.89c0,6.71-7.59,12.8-8.51,19.25-.94,6.62,4.61,14.6,2.77,20.88s-10.87,10.1-13.6,16.07.31,15.26-3.26,20.8-13.26,6.59-17.59,11.58-4,14.71-9,19-14.55,2.59-20.12,6.18-7.92,13-14,15.76-14.66-1.63-21.05.25-11.24,10.21-17.86,11.15c-6.45.93-13.55-5.7-20.27-5.7s-13.81,6.63-20.26,5.7c-6.62-.94-11.58-9.31-17.86-11.15s-15.08,2.48-21.05-.25-8.43-12.2-14-15.76-15.14-1.87-20.13-6.19-4.64-14-9-19-14-6-17.58-11.58-.5-14.76-3.26-20.8-11.73-9.68-13.6-16.07,3.71-14.26,2.77-20.88c-.92-6.45-8.5-12.54-8.5-19.25s7.58-12.81,8.5-19.26c.94-6.62-4.61-14.59-2.77-20.88s10.87-10.09,13.6-16.07-.31-15.26,3.26-20.8,13.26-6.59,17.58-11.58,4-14.71,9-19,14.56-2.6,20.13-6.19,7.92-13,14-15.76,14.66,1.63,21.05-.25,11.24-10.21,17.86-11.15c6.45-.92,13.55,5.71,20.26,5.71s13.82-6.63,20.27-5.71c6.62.94,11.58,9.31,17.86,11.15s15.08-2.48,21.05.26,8.43,12.19,14,15.76,15.14,1.86,20.13,6.18,4.64,14,9,19,14,6,17.58,11.57.5,14.77,3.26,20.8,11.73,9.68,13.6,16.07-3.71,14.26-2.77,20.88C1175.29,639.08,1182.88,645.18,1182.88,651.89Z" transform="translate(-898.06 -510.82)"/><path class="cls-1" d="M1182.88,651.89c0,6.71-7.59,12.8-8.51,19.25-.94,6.62,4.61,14.6,2.77,20.88s-10.87,10.1-13.6,16.07.31,15.26-3.26,20.8-13.26,6.59-17.59,11.58-4,14.71-9,19-14.55,2.59-20.12,6.18-7.92,13-14,15.76-14.66-1.63-21.05.25-11.24,10.21-17.86,11.15c-6.45.93-13.55-5.7-20.27-5.7s-13.81,6.63-20.26,5.7c-6.62-.94-11.58-9.31-17.86-11.15s-15.08,2.48-21.05-.25-8.43-12.2-14-15.76-15.14-1.87-20.13-6.19-4.64-14-9-19-14-6-17.58-11.58-.5-14.76-3.26-20.8-11.73-9.68-13.6-16.07,3.71-14.26,2.77-20.88c-.92-6.45-8.5-12.54-8.5-19.25s7.58-12.81,8.5-19.26c.94-6.62-4.61-14.59-2.77-20.88s10.87-10.09,13.6-16.07-.31-15.26,3.26-20.8,13.26-6.59,17.58-11.58,4-14.71,9-19,14.56-2.6,20.13-6.19,7.92-13,14-15.76,14.66,1.63,21.05-.25,11.24-10.21,17.86-11.15c6.45-.92,13.55,5.71,20.26,5.71s13.82-6.63,20.27-5.71c6.62.94,11.58,9.31,17.86,11.15s15.08-2.48,21.05.26,8.43,12.19,14,15.76,15.14,1.86,20.13,6.18,4.64,14,9,19,14,6,17.58,11.57.5,14.77,3.26,20.8,11.73,9.68,13.6,16.07-3.71,14.26-2.77,20.88C1175.29,639.08,1182.88,645.18,1182.88,651.89Z" transform="translate(-898.06 -510.82)"/><g class="cls-4"><rect class="cls-5" x="1026.94" y="615.21" width="236.72" height="283.85" transform="translate(-1097.98 520.79) rotate(-45)"/></g><circle class="cls-6" cx="1040.46" cy="651.89" r="118.52" transform="translate(-1054.26 415.83) rotate(-45)"/><path class="cls-7" d="M1148.28,651.89a107.81,107.81,0,1,1-107.82-107.81A107.81,107.81,0,0,1,1148.28,651.89Z" transform="translate(-898.06 -510.82)"/><path class="cls-8" d="M1016.45,616.84l-17.12-20.66q5.64-6.18,16.24-11.48a47.68,47.68,0,0,1,21.54-5.29q21.36,0,33.19,10.15t11.83,27.28q0,12.36-13.06,22.42,16.42,11.84,16.42,29,0,18.36-14.66,28.6t-34.25,10.24a52.55,52.55,0,0,1-24-6q-11.84-6-17.13-13.95l18-18.72q11.47,11.49,23.31,11.48,7.41,0,11.65-3.53t4.24-10.07q0-12.88-14.66-12.88h-13.24v-21h12.89a17.45,17.45,0,0,0,10.77-3.17,10.59,10.59,0,0,0,4.24-9q0-6.71-4.68-10.33a17.27,17.27,0,0,0-10.86-3.62Q1026.52,606.24,1016.45,616.84Z" transform="translate(-898.06 -510.82)"/></svg>