<?xml version="1.0" standalone="no"?>
<!DOCTYPE svg PUBLIC "-//W3C//DTD SVG 20010904//EN"
 "http://www.w3.org/TR/2001/REC-SVG-20010904/DTD/svg10.dtd">
<svg version="1.0" xmlns="http://www.w3.org/2000/svg"
 width="225.000000pt" height="225.000000pt" viewBox="0 0 225.000000 225.000000"
 preserveAspectRatio="xMidYMid meet">
<metadata>
Created by potrace 1.11, written by Peter Selinger 2001-2013
</metadata>
<g transform="translate(0.000000,225.000000) scale(0.100000,-0.100000)"
fill="#000000" stroke="none">
<path d="M1128 2135 c-1 -1 -39 -5 -83 -8 -269 -18 -532 -159 -704 -378 -30
-38 -122 -189 -116 -189 3 0 0 -10 -7 -22 -6 -13 -13 -27 -15 -33 -1 -5 -11
-35 -22 -65 -56 -157 -62 -370 -15 -545 8 -33 17 -67 19 -76 2 -9 8 -25 13
-35 6 -11 21 -41 33 -69 52 -116 186 -281 294 -364 58 -44 214 -130 240 -132
2 0 20 -6 38 -14 46 -19 167 -46 177 -40 5 3 11 1 14 -4 3 -5 69 -8 148 -6
107 3 162 9 218 25 41 11 82 22 90 24 37 10 157 69 220 110 89 58 225 193 283
281 67 103 131 256 143 345 2 14 8 49 12 78 13 79 6 246 -13 332 -28 117 -100
292 -129 312 -6 4 -11 11 -11 15 0 33 -128 171 -240 261 -58 46 -203 122 -270
142 -90 26 -160 40 -223 46 -37 3 -72 7 -79 9 -6 2 -13 2 -15 0z"/>
</g>
</svg>
